<svg width="242" height="47" viewBox="0 0 242 47" fill="none" xmlns="http://www.w3.org/2000/svg">
<g id="logo-zennolab-colored 1" clip-path="url(#clip0_23_1133)">
<path id="Vector" d="M9.53854 0.5H32.8491L27.752 6.49394C27.7497 6.49795 27.7484 6.50248 27.7482 6.50712C27.7481 6.51176 27.7491 6.51637 27.7512 6.52052C27.7532 6.52468 27.7563 6.52825 27.7601 6.53091C27.7638 6.53357 27.7682 6.53524 27.7728 6.53576C30.3998 6.61475 32.9968 6.62869 35.5638 6.57758C35.6077 6.57539 35.6506 6.56438 35.6899 6.54521C35.7292 6.52604 35.764 6.49911 35.7923 6.46606L39.532 2.08212C39.7443 1.83121 39.9913 1.79404 40.273 1.97061C44.7744 4.82818 45.9309 9.00303 45.8478 14.4533C45.7601 19.741 45.7555 24.88 45.834 29.8703C45.8386 30.1537 45.6978 30.2955 45.4115 30.2955H26.3808C25.993 30.2955 25.9215 30.1444 26.1662 29.8424L42.6276 9.69303C42.9554 9.29344 42.863 9.09364 42.3506 9.09364L0.701872 9.10061C0.668153 9.10097 0.634822 9.09334 0.604579 9.07833C0.574336 9.06332 0.548033 9.04134 0.5278 9.01419C0.507567 8.98704 0.493974 8.95548 0.488121 8.92206C0.482269 8.88863 0.484322 8.85429 0.494114 8.82182C1.86532 4.29616 4.88013 1.52222 9.53854 0.5Z" fill="#00CE58"/>
<path id="Vector_2" d="M77.9812 15.3734L68.2027 15.3943C68.0365 15.3943 67.9534 15.3107 67.9534 15.1434V11.1288C67.9534 11.0127 68.0111 10.9546 68.1265 10.9546H86.2985C86.5293 10.9546 86.6632 11.0708 86.7002 11.3031C86.8802 12.4833 86.6909 13.4939 86.1323 14.3349C82.1202 20.3753 78.4198 25.886 75.0311 30.867C75.006 30.9048 74.9915 30.9488 74.9893 30.9942C74.9871 31.0396 74.9973 31.0848 75.0186 31.1249C75.0399 31.165 75.0717 31.1985 75.1105 31.2218C75.1493 31.2451 75.1936 31.2574 75.2388 31.2573H87.2126C87.4112 31.2573 87.5104 31.3572 87.5104 31.557L87.5174 35.697C87.5174 35.8132 87.4596 35.8713 87.3442 35.8713H66.9216C66.6907 35.8713 66.5753 35.7574 66.5753 35.5297L66.5684 33.5016C66.5684 33.2553 66.6353 33.0299 66.7692 32.8255L78.2305 15.8334C78.4383 15.5221 78.3552 15.3687 77.9812 15.3734Z" fill="#009CFF"/>
<path id="Vector_3" d="M186.667 31.2573H197.941C198.018 31.2573 198.092 31.2882 198.147 31.3431C198.201 31.398 198.232 31.4724 198.232 31.55L198.197 35.5785C198.197 35.6562 198.167 35.7306 198.112 35.7855C198.058 35.8404 197.984 35.8713 197.906 35.8713H180.434C180.357 35.8713 180.283 35.8404 180.228 35.7855C180.174 35.7306 180.143 35.6562 180.143 35.5785V11.2473C180.143 11.1697 180.174 11.0952 180.228 11.0403C180.283 10.9854 180.357 10.9546 180.434 10.9546L186.078 10.9616C186.155 10.9616 186.229 10.9924 186.284 11.0473C186.338 11.1022 186.369 11.1767 186.369 11.2543L186.376 30.9646C186.376 31.003 186.383 31.0411 186.398 31.0766C186.413 31.1121 186.434 31.1444 186.461 31.1716C186.488 31.1988 186.52 31.2203 186.555 31.235C186.591 31.2497 186.628 31.2573 186.667 31.2573Z" fill="#00CE58"/>
<path id="Vector_4" d="M241.085 21.8691V32.0449C240.698 34.54 239.107 35.8341 236.314 35.927C231.217 36.0989 226.803 36.0734 223.073 35.8503C222.847 35.8364 222.733 35.7156 222.733 35.4879V11.1288C222.733 11.0826 222.752 11.0383 222.784 11.0056C222.817 10.9729 222.861 10.9546 222.907 10.9546H228.793C228.839 10.9546 228.883 10.9729 228.915 11.0056C228.948 11.0383 228.966 11.0826 228.966 11.1288V17.5619C228.966 17.8035 229.086 17.9196 229.326 17.9103C233.449 17.7895 236.335 17.8848 237.983 18.1961C239.723 18.5214 240.758 19.7457 241.085 21.8691ZM234.936 22.4546C234.936 22.3622 234.899 22.2735 234.834 22.2082C234.769 22.1428 234.681 22.1061 234.589 22.1061H229.312C229.221 22.1061 229.133 22.1428 229.068 22.2082C229.003 22.2735 228.966 22.3622 228.966 22.4546V31.1667C228.966 31.2591 229.003 31.3478 229.068 31.4131C229.133 31.4785 229.221 31.5152 229.312 31.5152H234.589C234.681 31.5152 234.769 31.4785 234.834 31.4131C234.899 31.3478 234.936 31.2591 234.936 31.1667V22.4546Z" fill="#00CE58"/>
<path id="Vector_5" d="M0.0854492 16.2584H30.3213C30.361 16.2573 30.4003 16.2678 30.4344 16.2885C30.4684 16.3093 30.4958 16.3394 30.5133 16.3754C30.5308 16.4114 30.5377 16.4517 30.5331 16.4915C30.5285 16.5313 30.5127 16.5689 30.4875 16.5999L19.7394 29.8423C19.6245 29.9841 19.4804 30.0983 19.3175 30.1766C19.1545 30.255 18.9769 30.2956 18.7976 30.2953H15.8336C15.4596 30.3 15.3926 30.1583 15.6327 29.8702C18.6337 26.2878 21.48 22.8238 24.1716 19.4784C24.176 19.4745 24.1791 19.4693 24.1804 19.4636C24.1817 19.4578 24.1812 19.4518 24.1789 19.4464C24.1766 19.4409 24.1726 19.4364 24.1676 19.4334C24.1625 19.4304 24.1567 19.429 24.1508 19.4296C21.9486 19.3692 19.8872 19.3459 17.9665 19.3599C17.9081 19.3597 17.8498 19.3733 17.7959 19.3998C17.742 19.4264 17.6938 19.4651 17.6549 19.5132L2.85556 37.7529C2.83497 37.7794 2.82213 37.8112 2.81848 37.8447C2.81483 37.8782 2.82052 37.912 2.8349 37.9424C2.84928 37.9728 2.87179 37.9985 2.8999 38.0168C2.92802 38.035 2.96063 38.045 2.99407 38.0456L45.1137 38.0526C45.1491 38.0519 45.1841 38.0598 45.2158 38.0756C45.2476 38.0913 45.2751 38.1145 45.2962 38.1432C45.3172 38.1718 45.3311 38.2051 45.3367 38.2403C45.3423 38.2755 45.3394 38.3115 45.3284 38.3453C43.9571 42.7781 40.9654 45.4963 36.3532 46.4999H9.59387C4.22446 45.2918 1.05499 41.8883 0.0854492 36.2893V16.2584Z" fill="#009CFF"/>
<path id="Vector_6" d="M96.9495 28.8805L96.9218 31.3687C96.9218 31.4114 96.9301 31.4536 96.9462 31.493C96.9623 31.5324 96.9859 31.568 97.0156 31.5979C97.0452 31.6277 97.0804 31.6512 97.119 31.6669C97.1576 31.6826 97.1989 31.6902 97.2404 31.6893H108.113C108.279 31.6893 108.362 31.7752 108.362 31.9472L108.349 35.669C108.349 35.7269 108.326 35.7826 108.286 35.8243C108.246 35.8659 108.191 35.8902 108.134 35.892C104.26 35.9896 100.269 35.9942 96.16 35.9059C92.822 35.8362 91.1484 34.1078 91.1392 30.7205C91.13 27.5423 91.153 24.694 91.2084 22.1756C91.2638 19.5922 92.6166 18.1774 95.2667 17.9311C98.8909 17.5966 102.215 17.6314 105.239 18.0356C107.28 18.3098 108.402 19.4063 108.605 21.3253C108.78 23.0492 108.813 25.3469 108.702 28.2184C108.692 28.4739 108.563 28.6017 108.314 28.6017H97.2334C97.0488 28.6017 96.9541 28.6946 96.9495 28.8805ZM102.919 22.052C102.919 22.0035 102.91 21.9554 102.892 21.9105C102.874 21.8656 102.847 21.8247 102.813 21.7902C102.779 21.7557 102.739 21.7283 102.694 21.7095C102.65 21.6907 102.602 21.6809 102.554 21.6807L97.3185 21.6531C97.2703 21.6528 97.2226 21.6621 97.1779 21.6804C97.1333 21.6988 97.0927 21.7258 97.0584 21.7599C97.0242 21.794 96.9969 21.8346 96.9782 21.8793C96.9596 21.9241 96.9498 21.9721 96.9496 22.0206L96.9357 24.6969C96.9354 24.7454 96.9446 24.7935 96.9628 24.8384C96.9811 24.8833 97.0079 24.9241 97.0418 24.9586C97.0757 24.9931 97.116 25.0205 97.1604 25.0393C97.2049 25.0581 97.2526 25.0679 97.3008 25.0682L102.536 25.0958C102.584 25.0961 102.632 25.0868 102.677 25.0684C102.721 25.0501 102.762 25.0231 102.796 24.989C102.831 24.9548 102.858 24.9143 102.877 24.8695C102.895 24.8248 102.905 24.7768 102.905 24.7283L102.919 22.052Z" fill="#009CFF"/>
<path id="Vector_7" d="M124.567 22.4545C124.567 22.1061 124.394 21.9318 124.048 21.9318H119.664C119.392 21.9318 119.256 22.0666 119.256 22.3361L119.249 35.6691C119.249 35.8038 119.184 35.8712 119.055 35.8712H113.314C113.198 35.8712 113.141 35.8131 113.141 35.697V18.44C113.141 18.1426 113.288 17.987 113.584 17.973C120.306 17.7082 124.99 17.7686 127.635 18.1542C130.114 18.5167 130.835 21.0048 130.814 23.3048C130.786 27.3333 130.784 31.4083 130.807 35.5297C130.807 35.7574 130.694 35.8712 130.468 35.8712H124.914C124.822 35.8712 124.734 35.8345 124.669 35.7691C124.604 35.7038 124.567 35.6151 124.567 35.5227V22.4545Z" fill="#009CFF"/>
<path id="Vector_8" d="M141.535 22.2804V35.697C141.535 35.7433 141.516 35.7876 141.484 35.8203C141.451 35.8529 141.407 35.8713 141.361 35.8713H135.475C135.359 35.8713 135.302 35.8132 135.302 35.697V18.2658C135.302 18.1802 135.335 18.0979 135.395 18.0366C135.454 17.9754 135.535 17.9401 135.62 17.9383C139.323 17.8407 143.204 17.8151 147.262 17.8616C150.191 17.8964 152.844 18.6701 152.906 22.2664C152.98 26.2763 152.994 30.7044 152.947 35.5507C152.943 35.7644 152.837 35.8713 152.629 35.8713H147.075C146.844 35.8713 146.728 35.7551 146.728 35.5228V22.4546C146.728 22.1061 146.555 21.9319 146.209 21.9319L141.881 21.9249C141.65 21.9249 141.535 22.0434 141.535 22.2804Z" fill="#009CFF"/>
<path id="Vector_9" d="M175.612 31.7265C175.611 32.2921 175.5 32.852 175.284 33.3742C175.068 33.8964 174.752 34.3707 174.354 34.77C173.955 35.1692 173.483 35.4857 172.963 35.7012C172.444 35.9168 171.887 36.0272 171.325 36.0262L161.56 36.0091C160.998 36.0081 160.442 35.8957 159.923 35.6783C159.404 35.461 158.933 35.1429 158.536 34.7422C158.14 34.3415 157.825 33.8661 157.611 33.3432C157.397 32.8202 157.287 32.2599 157.288 31.6943L157.305 22.09C157.306 21.5244 157.417 20.9645 157.633 20.4423C157.849 19.9201 158.165 19.4458 158.564 19.0465C158.962 18.6473 159.434 18.3308 159.954 18.1153C160.473 17.8997 161.03 17.7893 161.592 17.7903L171.357 17.8074C171.919 17.8084 172.475 17.9208 172.994 18.1382C173.513 18.3556 173.984 18.6737 174.381 19.0743C174.778 19.475 175.092 19.9504 175.306 20.4733C175.52 20.9963 175.63 21.5566 175.629 22.1222L175.612 31.7265ZM169.409 22.5034C169.409 22.3537 169.35 22.2101 169.244 22.1042C169.139 21.9983 168.997 21.9389 168.848 21.9389H163.986C163.837 21.9389 163.695 21.9983 163.59 22.1042C163.484 22.2101 163.425 22.3537 163.425 22.5034V31.0622C163.425 31.2119 163.484 31.3555 163.59 31.4614C163.695 31.5673 163.837 31.6267 163.986 31.6267H168.848C168.997 31.6267 169.139 31.5673 169.244 31.4614C169.35 31.3555 169.409 31.2119 169.409 31.0622V22.5034Z" fill="#009CFF"/>
<path id="Vector_10" d="M212.456 24.4131L212.45 22.371C212.45 22.0643 212.299 21.9133 211.999 21.9179L202.443 21.9388C202.304 21.9388 202.235 21.8668 202.235 21.7228L202.242 18.231C202.242 18.1675 202.266 18.1064 202.31 18.0609C202.354 18.0153 202.414 17.9888 202.477 17.987C207.191 17.7919 211.166 17.7988 214.402 18.0079C217.422 18.2031 218.288 20.4055 218.267 23.1167C218.221 27.7585 218.211 31.8939 218.239 35.5228C218.24 35.574 218.231 35.625 218.212 35.6727C218.194 35.7204 218.166 35.7639 218.13 35.8008C218.095 35.8377 218.053 35.8672 218.006 35.8877C217.959 35.9081 217.909 35.9191 217.858 35.92C213.389 36.0037 209.137 35.9944 205.102 35.8922C200.503 35.7737 200.261 31.8707 200.649 28.3649C200.87 26.3855 201.923 25.2866 203.807 25.0682C206.088 24.808 208.818 24.736 211.999 24.8522C212.304 24.8661 212.456 24.7197 212.456 24.4131ZM212.461 28.6801C212.461 28.628 212.451 28.5763 212.431 28.5281C212.411 28.48 212.382 28.4362 212.345 28.3994C212.308 28.3625 212.265 28.3334 212.217 28.3135C212.169 28.2936 212.117 28.2834 212.066 28.2835L206.705 28.293C206.654 28.2931 206.602 28.3034 206.554 28.3235C206.507 28.3435 206.463 28.3729 206.427 28.4098C206.39 28.4468 206.361 28.4906 206.341 28.5389C206.321 28.5871 206.311 28.6388 206.311 28.6909L206.316 31.3951C206.316 31.4473 206.326 31.4989 206.346 31.5471C206.366 31.5953 206.395 31.639 206.432 31.6759C206.469 31.7127 206.512 31.7419 206.56 31.7618C206.608 31.7817 206.66 31.7919 206.712 31.7918L212.072 31.7823C212.124 31.7822 212.175 31.7718 212.223 31.7518C212.271 31.7317 212.314 31.7024 212.351 31.6654C212.387 31.6285 212.416 31.5846 212.436 31.5364C212.456 31.4882 212.466 31.4365 212.466 31.3843L212.461 28.6801Z" fill="#00CE58"/>
</g>
<defs>
<clipPath id="clip0_23_1133">
<rect width="241" height="46" fill="white" transform="translate(0.0854492 0.5)"/>
</clipPath>
</defs>
</svg>
