<svg width="97" height="57" viewBox="0 0 97 57" fill="none" xmlns="http://www.w3.org/2000/svg">
<g id="Group 61">
<g id="Black">
<path id="Vector" d="M23.9111 0.552385C21.8595 0.730764 20.3432 1.46977 18.8141 3.01148C16.8899 4.96092 16.0872 7.30534 16.4567 9.9683C16.9919 13.8417 19.9481 16.7085 23.8219 17.078C25.8097 17.2691 27.9632 16.8614 29.3776 16.0332C33.2003 13.7907 34.602 9.02543 32.6269 4.99914C31.582 2.89681 29.4285 1.22768 27.1349 0.743505C25.9244 0.488678 25.1598 0.450453 23.9111 0.552385ZM27.0712 4.20917C28.1161 4.71883 29.0718 5.73814 29.4668 6.75746C29.8873 7.80226 29.8873 9.84088 29.4668 10.8984C29.0845 11.8668 28.0014 13.039 27.0584 13.4977C26.4086 13.8162 26.2047 13.8544 24.9942 13.8544C23.7709 13.8544 23.5925 13.8162 22.8917 13.4849C20.9421 12.5293 19.8717 10.5162 20.0756 8.24821C20.2285 6.59182 21.2734 4.96092 22.6368 4.26014C23.5415 3.80145 23.8983 3.73774 25.1343 3.76322C26.0773 3.80145 26.3576 3.86516 27.0712 4.20917Z" fill="#0054AF"/>
<path id="Vector_2" d="M0.783691 8.75807V16.8489H2.50393H4.22416V13.5998V10.3507H7.53721H10.8503V13.5998V16.8489H12.6342H14.4181V8.75807V0.667265H12.6342H10.8503V3.91633V7.16539H7.53721H4.22416V3.91633V0.667265H2.50393H0.783691V8.75807Z" fill="#0054AF"/>
<path id="Vector_3" d="M35.6982 8.77052V16.8613L40.5786 16.8104C44.5798 16.7721 45.5482 16.7339 46.0324 16.5683C48.1986 15.8165 49.1925 14.6698 49.3072 12.7586C49.4219 10.8729 48.6828 9.57323 47.0773 8.80875C46.7077 8.64311 46.4147 8.47747 46.4147 8.43925C46.4147 8.40102 46.644 8.22264 46.9244 8.01878C47.4978 7.62379 48.1222 6.70641 48.326 5.95467C48.5427 5.17744 48.4025 3.89056 48.0202 3.15156C47.587 2.28514 46.7332 1.53339 45.8158 1.17663C44.7709 0.781651 43.3182 0.679718 39.2407 0.666977H35.6982V8.77052ZM44.121 4.14539C45.1022 4.66778 45.2806 5.91644 44.4778 6.66819C43.9426 7.17785 43.0889 7.318 40.9227 7.26704L39.075 7.22881L39.0368 5.5342L38.9985 3.85233H41.2794C43.4202 3.85233 43.5986 3.86507 44.121 4.14539ZM44.8346 10.4779C46.1598 11.0767 46.2363 12.8096 44.962 13.4976C44.618 13.6887 44.1465 13.7269 41.7891 13.7652L39.0113 13.8034V12.0196V10.223H41.6617C43.9809 10.223 44.3631 10.2613 44.8346 10.4779Z" fill="#0054AF"/>
<path id="Vector_4" d="M73.964 0.794334C72.2947 1.10013 70.8038 2.01751 69.9756 3.24069C69.2238 4.37467 69.0454 5.04997 69.1091 6.5662C69.1473 7.64922 69.2238 7.99324 69.5168 8.65579C70.0902 9.91719 71.3263 10.911 72.8426 11.306C74.2188 11.6628 76.4233 11.5354 77.3789 11.0384C77.8377 10.8091 77.8504 10.9365 77.4427 11.8157C76.5125 13.8288 74.3207 14.0454 71.7977 12.389L71.4027 12.1215L71.0842 12.5419C70.2941 13.6122 69.3384 14.9883 69.3384 15.0775C69.3384 15.1284 69.7717 15.447 70.2941 15.7655C73.2631 17.6258 77.1241 17.4856 79.4305 15.4597C80.4881 14.5296 81.3928 12.8222 81.7624 11.0512C82.0172 9.86623 82.0172 7.07586 81.7624 5.86542C81.2527 3.43181 79.8765 1.76268 77.774 1.0619C76.882 0.756109 74.9324 0.628696 73.964 0.794334ZM76.5379 1.30399C79.01 1.66075 80.692 3.32988 81.2527 5.95461C81.4438 6.87199 81.5203 9.59866 81.3673 10.4523C81.087 12.1215 80.3734 13.6632 79.405 14.7207C77.774 16.5045 74.805 17.0651 72.1545 16.0968C70.9058 15.6381 70.052 15.1157 70.154 14.8609C70.2432 14.6188 71.3645 13.0516 71.4919 12.9624C71.5556 12.9369 71.9634 13.1026 72.4094 13.3446C74.754 14.5806 76.9457 14.1091 77.8759 12.1852C78.1308 11.6628 78.5767 9.85349 78.4748 9.75156C78.4366 9.72607 78.2582 9.84075 78.0543 10.0064C77.0349 10.8601 75.5695 11.2168 73.9767 10.9875C72.5241 10.7964 71.6958 10.4141 70.8548 9.59866C69.8481 8.60483 69.5551 7.78938 69.6188 6.14573C69.6697 4.66773 70.0138 3.82679 70.9567 2.88393C72.2947 1.54608 74.2698 0.985455 76.5379 1.30399Z" fill="#0054AF"/>
<path id="Vector_5" d="M74.8558 4.24721C74.0148 4.40011 73.5943 4.68042 73.2885 5.31749C72.8043 6.32406 73.0974 7.29241 74.0658 7.86578C74.4098 8.06964 74.7284 8.12061 75.5439 8.12061C76.7035 8.12061 77.0475 7.95497 77.5955 7.165C78.1306 6.36229 77.8503 5.0754 77.0093 4.57849C76.5123 4.28544 75.5312 4.13254 74.8558 4.24721ZM76.1428 4.75687C76.8564 4.96073 77.3661 5.49587 77.3661 6.08198C77.3661 7.19048 76.6143 7.73836 75.2253 7.64917C74.4735 7.59821 74.3716 7.55998 73.9766 7.12677C73.4924 6.60438 73.4159 6.1202 73.7217 5.52135C74.1168 4.76961 75.0852 4.46382 76.1428 4.75687Z" fill="#0054AF"/>
<path id="Vector_6" d="M51.2441 8.82178V16.8489H52.9389H54.6464L58.1378 11.6122L61.6293 6.36268L61.6675 11.6122L61.693 16.8489H63.4132H65.1334V8.82178V0.794682H63.5024H61.8841L58.3799 6.03141L54.8757 11.2554L54.8375 6.03141L54.812 0.794682H53.0281H51.2441V8.82178Z" fill="#0054AF"/>
<path id="Vector_7" d="M84.6293 2.57795V4.23434L87.7002 4.25982L90.7711 4.29805L88.9362 5.82702L87.114 7.35599L87.0758 8.70658L87.0376 10.0572L88.7323 10.1336C90.6692 10.2101 91.2808 10.3502 91.7905 10.8599C92.4149 11.4842 92.1983 12.7966 91.4083 13.1916C90.2232 13.8031 88.452 13.4082 87.1395 12.2614C86.821 11.9811 86.5279 11.7518 86.4897 11.7518C86.4387 11.7518 85.7761 12.2742 84.9988 12.924L83.6099 14.0962L84.0176 14.5294C85.0625 15.6124 86.5789 16.4534 88.1334 16.7974C89.0764 17.0012 91.0132 17.0267 91.918 16.8356C94.8615 16.2113 96.6582 13.3827 95.9191 10.5159C95.5241 8.94867 94.6194 8.04402 92.9119 7.49614C92.3894 7.33051 91.9817 7.13938 92.0199 7.07568C92.0454 7.02471 92.9246 6.26023 93.9568 5.39381L95.8426 3.81387V2.36135V0.921568H90.236H84.6293V2.57795ZM95.3329 2.48876V3.55904L92.9883 5.52122C91.6886 6.5915 90.6437 7.49614 90.6692 7.50888C90.6819 7.52163 91.077 7.59807 91.5484 7.67452C92.9501 7.89113 93.7784 8.27337 94.5302 9.01237C95.3584 9.85331 95.6515 10.707 95.5623 12.0703C95.3839 14.797 93.3196 16.4661 90.1213 16.4661C87.9678 16.4661 86.2603 15.88 84.9861 14.6823L84.3617 14.1089L85.4066 13.2553L86.4387 12.4143L87.0248 12.8475C87.7767 13.4336 88.1589 13.6248 89.0509 13.8541C91.0132 14.3765 92.657 13.4464 92.657 11.8282C92.657 10.9108 92.313 10.4139 91.421 10.0062C90.7966 9.72589 90.4653 9.66219 89.1274 9.61122L87.5473 9.54751L87.5855 8.57916L87.6237 7.61082L89.9174 5.6996L92.1983 3.78839L88.6686 3.75016L85.139 3.72468V2.57795V1.43122H90.236H95.3329V2.48876Z" fill="#0054AF"/>
<path id="Vector_8" d="M22.3567 20.3014C20.3307 20.4925 18.6486 21.2952 17.2342 22.7223C15.6669 24.2894 14.9533 25.9204 14.8386 28.1246C14.7112 30.6347 15.4885 32.7115 17.2087 34.4316C18.878 36.1007 20.7894 36.8652 23.3379 36.8652C25.9373 36.8652 27.734 36.1517 29.467 34.4316C30.3717 33.5397 30.6648 33.1447 31.0853 32.2656C31.7479 30.8768 31.9136 30.0741 31.9136 28.5069C31.9008 27.0289 31.6587 25.9586 31.0471 24.7609C29.4543 21.6137 26.1795 19.9191 22.3567 20.3014ZM25.3894 23.8817C25.7844 24.0601 26.3706 24.4933 26.7529 24.8756C29.2376 27.3984 28.5496 31.7559 25.4022 33.3104C24.8925 33.5652 24.6121 33.6034 23.4653 33.6034C22.2803 33.6034 22.0381 33.5652 21.401 33.2594C20.3816 32.788 19.4642 31.8961 18.9672 30.8768C18.5849 30.0868 18.5594 29.9721 18.5594 28.5706C18.5594 27.2455 18.5977 27.0289 18.9035 26.379C19.5406 25.003 20.5473 24.0728 21.847 23.6524C22.7135 23.3721 24.5102 23.4867 25.3894 23.8817Z" fill="#0054AF"/>
<path id="Vector_9" d="M0.783691 28.5708V36.5979H2.50393H4.22416V34.1515V31.6925L5.14162 30.7751C5.65132 30.2654 6.09731 29.8449 6.14828 29.8449C6.1865 29.8449 7.33333 31.3612 8.69677 33.2214L11.1561 36.5979H13.2331C14.3799 36.5979 15.3101 36.5724 15.3101 36.5469C15.3101 36.5215 13.7938 34.4446 11.9334 31.9345C9.00259 27.972 8.58209 27.3476 8.72226 27.1438C8.79871 27.0291 10.2768 25.4874 11.9843 23.7418L15.0808 20.5437H12.94L10.7865 20.5564L7.53721 24.0603L4.28787 27.577L4.24965 24.0603L4.22416 20.5437H2.50393H0.783691V28.5708Z" fill="#0054AF"/>
<path id="Vector_10" d="M33.9141 28.5708V36.5979H35.6343H37.3545L37.38 31.3484L37.4182 26.099L39.6482 29.5009C40.8715 31.3739 41.9163 32.9029 41.9801 32.9029C42.031 32.9029 43.0886 31.3739 44.3374 29.4882L46.5928 26.0862L46.6311 31.3357L46.6565 36.5979H48.3768H50.097V28.5708V20.531L48.1602 20.5692L46.2233 20.6074L44.21 23.8565C43.1014 25.6403 42.1457 27.1438 42.082 27.2075C42.031 27.2584 41.0371 25.7804 39.8903 23.9202L37.8005 20.5437H35.8637H33.9141V28.5708Z" fill="#0054AF"/>
<path id="Vector_11" d="M18.6485 47.4534C16.941 51.4669 15.3864 55.1365 15.1825 55.6206L14.813 56.4871L16.6097 56.4488L18.4191 56.4106L19.1454 54.6268L19.8845 52.843L23.3122 52.8048L26.7527 52.7793L27.1859 53.8241C27.428 54.4102 27.7721 55.2384 27.9377 55.6716L28.2436 56.4743H30.0657C31.7477 56.4743 31.8879 56.4616 31.8242 56.245C31.786 56.1303 30.2314 52.4735 28.3837 48.1287L25.0197 40.229L23.3759 40.1908L21.7449 40.1653L18.6485 47.4534ZM24.4463 47.0839L25.4784 49.6577L23.3759 49.6959C22.2164 49.7086 21.2479 49.7086 21.2225 49.6831C21.1587 49.6194 23.2485 44.4974 23.3377 44.4974C23.3759 44.4974 23.8729 45.6568 24.4463 47.0839Z" fill="#0054AF"/>
<path id="Vector_12" d="M74.0531 40.293C72.4475 40.5478 71.4281 41.1339 70.1029 42.5482C69.6187 43.0706 69.2109 43.5548 69.2109 43.6057C69.2109 43.6694 69.8226 44.2046 70.5871 44.7907L71.9506 45.8737L72.7151 45.071C73.6326 44.1154 74.3334 43.7332 75.1489 43.7332C76.5888 43.7332 77.3661 44.7525 76.9838 46.1668C76.7672 46.9567 75.4293 48.2309 71.9251 50.9958L69.0835 53.2255V54.78V56.3472H75.1999H81.3163V54.6271V52.907L78.1307 52.8815L74.945 52.8433L76.7545 51.4799C78.9844 49.8236 80.042 48.7533 80.5645 47.632C81.6603 45.2876 81.0614 42.5737 79.1628 41.2613C77.965 40.4204 75.786 40.0127 74.0531 40.293ZM76.5124 40.8026C78.7168 41.1212 80.2459 42.5227 80.5645 44.4976C80.8193 46.1031 80.2332 47.7085 78.8825 49.0591C78.462 49.4795 77.073 50.6135 75.7733 51.5819L73.4159 53.3529L77.1113 53.3912L80.8066 53.4166V54.6271V55.8375H75.1999H69.5932V54.6526V53.4803L72.7278 50.9958C76.1938 48.2436 77.124 47.3517 77.4426 46.3834C78.0287 44.6123 76.8054 43.0833 74.945 43.2617C74.0148 43.3382 73.5179 43.6057 72.6386 44.4594L71.9123 45.1602L70.9439 44.4212C70.4087 44.0007 69.9755 43.6057 69.9755 43.5293C69.9755 43.2745 71.8104 41.6181 72.422 41.325C73.0974 41.0065 74.3971 40.7007 75.1362 40.688C75.4165 40.688 76.0409 40.7389 76.5124 40.8026Z" fill="#0054AF"/>
<path id="Vector_13" d="M0.783691 48.3965V56.5L5.3455 56.449C9.51229 56.3981 9.95828 56.3726 10.6846 56.1305C12.4431 55.5444 13.437 54.6398 13.9084 53.1617C14.3162 51.9003 14.2398 50.1038 13.7428 49.0717C13.1694 47.8868 12.0226 46.9949 10.5317 46.5744C10.1239 46.4598 8.88791 46.3706 7.06573 46.3196L4.22416 46.2432V44.8671V43.4783H8.68403H13.1439V41.8856V40.2929H6.96379H0.783691V48.3965ZM9.62697 49.5304C10.3915 49.9127 10.6591 50.3586 10.6591 51.2505C10.6591 52.1552 10.3915 52.5884 9.576 52.9961C9.05356 53.2637 8.84968 53.2892 6.61975 53.2892H4.22416V51.3397C4.22416 50.2567 4.26239 49.3393 4.3261 49.2884C4.37707 49.2374 5.47292 49.2119 6.77266 49.2374C8.8242 49.2756 9.19373 49.3138 9.62697 49.5304Z" fill="#0054AF"/>
<path id="Vector_14" d="M33.9141 48.3833V56.4741H35.698H37.482V53.2251V49.976H40.795H44.108V53.2251V56.4741H45.8283H47.5485V48.3833V40.2925H45.8283H44.108V43.4779V46.6632H40.795H37.482V43.4779V40.2925H35.698H33.9141V48.3833Z" fill="#0054AF"/>
<path id="Vector_15" d="M50.4795 48.3833V56.4741H52.2634H54.0474V53.9513V51.4285L55.0031 50.4857C55.5255 49.9633 55.9715 49.5683 55.997 49.6065C56.0225 49.632 57.1438 51.1864 58.5073 53.0594L60.9793 56.4741H63.0563C64.7001 56.4741 65.1333 56.4359 65.0569 56.3085C65.0059 56.232 63.5023 54.1807 61.7184 51.7725C59.9472 49.3644 58.4563 47.3258 58.4181 47.2366C58.3926 47.1347 59.6923 45.6821 61.5527 43.7454C63.3112 41.9234 64.7511 40.3944 64.7511 40.3562C64.7511 40.318 63.8209 40.2925 62.674 40.2925H60.6098L57.3604 43.8091L54.1111 47.3258L54.0729 43.8091L54.0474 40.2925H52.2634H50.4795V48.3833Z" fill="#0054AF"/>
<path id="Vector_16" d="M84.5021 42.013V43.7331L87.522 43.7586L90.542 43.7968L88.7326 45.313L86.9104 46.8165L86.9486 48.1799L86.9868 49.5304L88.8345 49.5942C90.4783 49.6579 90.7459 49.6961 91.2046 49.9637C91.8162 50.3077 92.0201 50.6644 92.0201 51.378C92.0201 51.7092 91.9182 51.9895 91.7016 52.2444C91.2428 52.7922 90.7586 52.9451 89.7265 52.8814C88.6943 52.805 87.7514 52.3973 86.8976 51.6328L86.3242 51.1359L85.2539 52.0405C84.6677 52.5374 84.0178 53.0853 83.8012 53.2637L83.4189 53.5822L84.2472 54.3212C87.2289 57.0097 92.2877 57.188 94.6196 54.6907C95.4733 53.7733 95.8556 52.8687 95.9321 51.5818C96.0467 49.8362 95.4733 48.4219 94.3393 47.632C93.7276 47.2115 92.4534 46.6764 92.0583 46.6636C91.8927 46.6636 91.7653 46.6254 91.778 46.5617C91.778 46.5107 92.6572 45.759 93.7404 44.8798L95.7027 43.2871V41.7837L95.7154 40.2929H90.1087H84.5021V42.013ZM95.2057 41.9111V43.0323L92.8229 45.0072L90.4401 46.9822L91.1409 47.0586C92.1475 47.1733 93.4473 47.632 94.0844 48.1161C94.3902 48.3582 94.8107 48.8551 95.0146 49.2246C95.3587 49.849 95.3969 50.0146 95.3969 51.1231C95.3969 52.6776 95.142 53.3529 94.2246 54.3212C93.065 55.5444 91.4722 56.0541 89.3315 55.9139C87.5093 55.7992 85.7253 55.073 84.655 54.0027L84.2345 53.595L85.2666 52.7285C86.2605 51.8876 86.2987 51.8621 86.5791 52.066C88.0062 53.1235 88.7835 53.4166 90.096 53.4166C91.5869 53.4166 92.5298 52.6011 92.5298 51.3142C92.5298 50.4478 92.1603 49.8872 91.3193 49.4667C90.7714 49.1992 90.4528 49.1482 89.0893 49.0845L87.4965 49.0208L87.4583 48.0652L87.4201 47.1096L89.7265 45.1984L92.0329 43.2871L88.5159 43.2489L85.0118 43.2234V42.013V40.8026H90.1087H95.2057V41.9111Z" fill="#0054AF"/>
</g>
<path id="Vector 36" d="M92.8758 21.6229L90.9006 19.658L73.3711 34.6404L75.0994 36.6053L92.8758 21.6229Z" fill="url(#paint0_linear_23_1113)"/>
</g>
<defs>
<linearGradient id="paint0_linear_23_1113" x1="74.6056" y1="27.0264" x2="92.6267" y2="25.0412" gradientUnits="userSpaceOnUse">
<stop offset="0.182292" stop-color="#005DB2"/>
<stop offset="1" stop-color="#D9D9D9" stop-opacity="0"/>
</linearGradient>
</defs>
</svg>
