<svg width="117" height="37" viewBox="0 0 117 37" fill="none" xmlns="http://www.w3.org/2000/svg">
<g id="Layer_1" clip-path="url(#clip0_23_1100)">
<g id="Group">
<path id="Vector" d="M37.146 29.5774V7.38989H48.6263C52.7797 7.38989 54.9062 10.0839 54.9062 13.0464C54.9062 15.8418 53.205 17.7035 51.1459 18.1361C53.4689 18.503 55.3315 20.7972 55.3315 23.5927C55.3315 26.9192 53.1404 29.5803 48.9871 29.5803H37.146V29.5774ZM50.1633 13.8758C50.1633 12.4796 49.1807 11.4473 47.6115 11.4473H41.7892V16.2714H47.6115C49.1807 16.2714 50.1633 15.272 50.1633 13.8758ZM50.5886 22.9244C50.5886 21.5282 49.606 20.3289 47.7757 20.3289H41.7892V25.4871H47.7757C49.5415 25.4871 50.5886 24.5235 50.5886 22.9244Z" fill="#2A2C36"/>
<path id="Vector_2" d="M74.6931 7.38989V11.5487H63.4093V15.4749H69.0673C73.7105 15.4749 76.2946 18.7029 76.2946 22.5276C76.2946 26.3523 73.7428 29.5803 69.0673 29.5803H58.7632V7.38989H74.6931ZM63.4093 19.6337V25.4215H68.4455C70.2435 25.4215 71.5517 24.2908 71.5517 22.5276C71.5517 20.7644 70.2435 19.6337 68.4455 19.6337H63.4093Z" fill="#2A2C36"/>
<path id="Vector_3" d="M79.2075 29.5774V7.38989H89.4119C94.1548 7.38989 96.7389 10.6507 96.7389 14.5411C96.7389 18.4314 94.1226 21.6923 89.4119 21.6923H83.8507V29.5774H79.2075ZM91.996 14.5411C91.996 12.6794 90.6233 11.5458 88.7901 11.5458H83.8507V17.5334H88.7901C90.6204 17.5334 91.996 16.3699 91.996 14.5381V14.5411Z" fill="#2A2C36"/>
<path id="Vector_4" d="M99.2524 29.5774V7.38989H109.457C114.2 7.38989 116.784 10.6507 116.784 14.5411C116.784 18.4314 114.167 21.6923 109.457 21.6923H103.896V29.5774H99.2524ZM112.041 14.5411C112.041 12.6794 110.668 11.5458 108.835 11.5458H103.896V17.5334H108.835C110.668 17.5334 112.041 16.3699 112.041 14.5381V14.5411Z" fill="#2A2C36"/>
</g>
<path id="Vector_5" d="M116.769 34.5327H6.23926V37H116.769V34.5327Z" fill="#FFCF00"/>
<g id="Group_2">
<path id="Vector_6" d="M13.2769 17.3887L6.0127 17.7759L6.62197 29.6007L13.8862 29.2135L13.2769 17.3887Z" fill="#2B2E36"/>
<path id="Vector_7" d="M16.1488 19.3877L14.2661 26.5344L25.5111 29.5991L27.3938 22.4524L16.1488 19.3877Z" fill="#2B2E36"/>
<path id="Vector_8" d="M25.2373 7.2778L18.8984 17.2061L24.9991 21.2357L31.338 11.3075L25.2373 7.2778Z" fill="#2B2E36"/>
<path id="Vector_9" d="M16.0647 0.00076271L10.4116 4.65698L17.7361 13.8569L23.3892 9.20069L16.0647 0.00076271Z" fill="#2B2E36"/>
<path id="Vector_10" d="M11.6489 7.06425L0.783203 11.3066L3.39004 18.214L14.2557 13.9716L11.6489 7.06425Z" fill="#2B2E36"/>
</g>
</g>
<defs>
<clipPath id="clip0_23_1100">
<rect width="116" height="37" fill="white" transform="translate(0.783691)"/>
</clipPath>
</defs>
</svg>
