<svg width="248" height="53" viewBox="0 0 248 53" fill="none" xmlns="http://www.w3.org/2000/svg">
<g id="g931">
<path id="path883" fill-rule="evenodd" clip-rule="evenodd" d="M0 26.5001C0 40.847 11.7136 52.4889 26.149 52.4889C40.5844 52.4889 52.298 40.847 52.298 26.5001C52.298 12.1531 40.5844 0.51123 26.149 0.51123C11.7136 0.51123 0 12.1531 0 26.5001ZM0.923479 26.5001C0.923479 12.6361 12.2482 1.38075 26.1976 1.38075C40.147 1.38075 51.4718 12.6361 51.4718 26.5001C51.4718 40.3157 40.147 51.5711 26.1976 51.5711C12.2482 51.6194 0.923479 40.364 0.923479 26.5001Z" fill="#5359ED"/>
<path id="path885" fill-rule="evenodd" clip-rule="evenodd" d="M8.16554 19.3992C14.8729 15.0516 22.2607 12.4914 34.8006 14.6652C35.4811 14.2787 35.8699 13.8923 36.0643 13.0711C32.9536 11.96 29.5514 11.5736 25.177 11.6219C21.2401 11.7185 14.1438 13.1677 10.3527 15.3898L11.5192 13.9406C14.1925 12.3948 21.0942 10.3659 26.2463 10.221C29.8916 10.1727 31.7871 10.3659 36.1129 11.5252C35.7241 10.8007 34.8492 10.4142 33.5369 9.83452C29.3569 7.95058 21.4831 7.80566 15.0673 10.6074C15.8936 10.0761 16.6713 9.59299 17.7406 9.10993C19.8791 8.1438 23.33 7.22598 27.6558 7.27429C31.1067 7.32259 35.238 8.53025 37.7655 10.9939C38.2029 11.4769 38.4459 12.0083 38.5431 12.4431C40.5359 13.4575 41.7024 14.3753 42.3342 15.4864C42.5773 16.066 42.7231 16.694 42.5773 17.3703C43.4035 17.8534 43.7924 18.2881 44.2298 18.8195C44.5214 19.2543 44.7644 19.7856 44.813 20.2687C44.9103 20.8967 44.9589 21.573 44.327 22.3942C45.0075 22.7323 45.5421 23.6501 45.6393 24.0849C45.9309 25.5824 45.0075 27.0316 43.6952 28.1909C42.237 29.4952 38.9806 30.9927 36.3559 31.669C31.1067 32.9733 26.4893 33.553 22.7954 34.2292C24.4479 34.6157 26.6837 35.1471 30.3776 35.1471C38.2029 35.1471 45.1047 31.4758 45.1047 31.4758C45.1047 31.4758 44.9589 31.9588 44.813 32.3936C39.8554 35.3886 31.933 36.6446 28.5793 36.4996C25.1284 36.3547 22.2607 35.8234 19.4417 34.9538C18.5668 35.1954 17.7406 35.4369 16.9143 35.8234C21.1914 37.7556 24.4479 38.1904 28.1418 38.4802C31.8844 38.77 38.0571 37.8522 43.3063 35.9683C43.0633 36.2098 42.9661 36.5963 42.7231 36.7895C40.0498 38.1904 34.3632 39.5912 31.5441 39.6879C28.7251 39.7845 25.2742 39.6879 22.2607 39.1565C19.6847 38.6734 17.5461 37.8522 15.359 36.8861C14.9701 37.1759 14.7757 37.5624 14.6785 37.9971C23.087 42.4413 31.1553 42.5379 40.3415 39.6879L39.5152 40.5091C29.4055 44.5668 21.5317 42.9727 15.4076 40.0743C15.2131 39.9777 14.9701 39.8811 14.7757 39.7845C15.359 40.7506 20.0249 44.132 25.2256 44.5668C28.8223 44.8566 33.1967 44.2287 35.8213 43.2142L34.266 43.9871C33.0023 44.6151 29.6486 46.016 24.9826 45.6778C18.7612 45.2431 15.2617 42.5379 13.6578 41.0887C12.9287 40.4125 12.5885 39.6396 12.3455 38.6734C10.936 37.9488 10.0611 37.1759 9.33204 36.0649C8.8946 35.3886 8.99181 34.664 9.08902 34.036L9.23483 33.4563C8.55437 32.9733 7.87391 32.4419 7.58229 31.9105C6.95044 30.7995 7.33927 29.8817 7.77671 29.1088C7.38787 28.674 7.04764 28.2876 6.90183 27.8528C6.75602 27.3214 6.70742 26.8384 6.75602 26.307C6.85323 25.3892 7.38787 24.5197 8.01973 23.7951C9.38064 22.2493 11.5192 21.0416 15.2131 19.8339C18.8098 18.6746 20.2194 18.4814 22.9412 17.8534C26.1005 17.1288 29.8916 16.8873 33.0509 15.7762C24.2535 14.2304 15.0673 15.6313 7.63089 20.7518L8.16554 19.3992ZM38.1543 13.9889C38.0571 14.4236 37.571 14.9067 37.2794 15.2448C38.2515 15.4864 39.2236 15.8245 40.1471 16.211C40.0012 15.3415 39.0292 14.5202 38.1543 13.9889ZM11.0332 31.4758C10.4499 31.1376 10.0611 30.9444 9.62366 30.6063C9.38064 31.1376 9.86668 31.7656 10.3527 32.0555C10.5471 31.8622 10.7902 31.669 11.0332 31.4758ZM40.7303 20.0272C41.3622 20.317 41.9454 20.5585 42.4801 20.945C42.8689 20.1721 42.6259 19.689 41.7996 19.0127C41.508 19.3992 41.1191 19.7373 40.7303 20.0272ZM38.8347 21.1865C37.571 21.7662 35.6755 22.3942 33.0509 23.0705C30.9123 23.6018 25.6144 24.3747 19.9277 25.5824C18.1294 25.9689 13.269 27.1282 10.8874 29.1088C11.5678 29.6401 11.9567 29.7851 12.7343 30.1715C13.7064 29.5435 15.0673 28.9638 17.0601 28.4325C20.5596 27.5147 23.1356 27.1282 26.2949 26.5968C29.4055 26.1138 35.238 24.9061 38.4945 23.7468C39.5638 23.3603 40.5359 22.8772 41.2649 22.2976C41.0219 22.1043 38.932 21.0899 38.8347 21.1865ZM14.3383 34.664C14.8243 34.3742 15.4076 34.0843 16.0394 33.8428C15.1159 33.4563 14.1925 33.0699 13.269 32.6351C12.8315 32.8767 12.4427 33.1665 12.1511 33.4563C12.8801 33.8428 13.5606 34.2775 14.3383 34.664ZM11.3248 34.9538C11.3248 35.5335 11.665 36.0649 12.4427 36.6929C12.5399 36.3547 12.6857 36.1615 12.9287 35.8717C12.3455 35.5818 11.8595 35.2437 11.3248 34.9538ZM15.7478 24.2298C22.1149 22.3942 28.8223 21.8145 35.6269 20.0272C32.9536 19.3026 31.5441 19.0127 28.7251 19.3509C24.6423 19.8339 20.1708 20.7035 16.331 21.8145C14.8243 22.2493 6.90183 24.4714 9.18623 27.6113C9.18623 27.6596 10.5471 25.7756 15.7478 24.2298ZM39.661 17.7568C38.6403 17.2737 37.328 16.8389 35.9185 16.4525C35.2866 16.9356 34.6062 17.3703 33.5369 17.7568C35.238 18.0466 36.5503 18.5297 38.0085 18.9644C38.3001 19.1093 39.4666 17.9983 39.661 17.7568ZM42.8203 23.8434C42.6259 23.9883 42.4314 24.1815 42.1884 24.3264C40.7303 25.4375 38.4459 26.307 35.2866 27.1765C28.7251 28.9155 23.9619 29.2054 18.5182 30.5096C17.4489 30.7512 16.3796 31.1376 15.359 31.5241C16.3796 32.0555 17.4489 32.4902 18.5668 32.925C20.754 32.297 21.8233 32.0071 25.0312 31.4758C26.2463 31.2826 29.9888 30.6063 32.7106 30.0266C37.571 29.0605 44.7158 26.7901 42.8203 23.8434Z" fill="#5B53F9"/>
<g id="g1109">
<path id="path887" fill-rule="evenodd" clip-rule="evenodd" d="M77.3291 37.8038H82.7242L83.356 33.891H87.0499L87.6818 37.8038H93.0768L88.5081 15.0515H81.8007L77.3291 37.8038ZM85.2516 21.911L86.2723 28.8671H84.2795L85.2516 21.911Z" fill="#5B53F9"/>
<path id="path889" fill-rule="evenodd" clip-rule="evenodd" d="M98.2292 23.8916C99.1041 23.8916 100.659 23.3602 100.659 21.6695C100.659 19.6889 98.8125 19.544 98.3264 19.544C97.6946 19.544 96.5767 19.6406 95.4102 20.172L95.3616 15.2447C97.1599 14.81 98.4722 14.665 99.979 14.665C104.305 14.665 106.297 17.7083 106.297 20.655C106.297 23.5534 104.596 25.2924 102.992 25.9687V26.2103C104.548 26.6933 106.638 28.1908 106.638 31.6689C106.638 35.9681 103.624 38.3352 99.7845 38.3352C97.6946 38.3352 96.3823 38.0453 94.7783 37.1758L94.8755 32.4418C96.3823 33.0698 97.4029 33.1181 98.4236 33.1181C100.125 33.1181 100.805 31.8621 100.805 30.9443C100.805 29.6883 99.979 28.8188 98.1806 28.8188H95.9934V23.8916H98.2292Z" fill="#5B53F9"/>
<path id="polygon891" fill-rule="evenodd" clip-rule="evenodd" d="M123.649 37.8038H118.302V20.5101H114.463V37.8038H109.116V15.0515H123.649V37.8038Z" fill="#5B53F9"/>
<path id="path893" fill-rule="evenodd" clip-rule="evenodd" d="M126.663 37.8038H131.96V30.3163H133.759C139.008 30.3163 140.661 25.6306 140.661 22.6356C140.661 19.6889 138.814 15.0515 133.759 15.0515H126.663V37.8038ZM131.96 20.0754H133.224C134.439 20.0754 135.168 20.8 135.168 22.6839C135.168 25.1475 133.905 25.2925 133.224 25.2925H131.96V20.0754Z" fill="#5B53F9"/>
<path id="path895" fill-rule="evenodd" clip-rule="evenodd" d="M150.478 38.0934C156.797 38.0934 158.887 32.2483 158.887 26.4033C158.887 20.5582 156.748 14.7131 150.478 14.7131C144.16 14.7131 142.07 20.5582 142.07 26.4033C142.07 32.2483 144.208 38.0934 150.478 38.0934ZM150.478 32.5865C148.631 32.5865 147.659 30.4127 147.659 26.4033C147.659 22.3938 148.631 20.2201 150.478 20.2201C152.374 20.2201 153.297 22.3938 153.297 26.4033C153.346 30.4127 152.374 32.5865 150.478 32.5865Z" fill="#5B53F9"/>
<path id="path897" fill-rule="evenodd" clip-rule="evenodd" d="M182.022 37.8038H188.39C189.751 37.8038 195.486 37.2241 195.534 30.3646C195.534 24.5679 191.063 23.5534 188.195 23.5534H187.272V20.5584H194.319V15.0515H182.071V37.8038H182.022ZM187.272 33.263V28.0942H188.049C188.681 28.0942 190.334 28.1425 190.334 30.4612C190.334 32.8766 188.633 33.263 188.049 33.263H187.272Z" fill="#5B53F9"/>
<path id="polygon899" fill-rule="evenodd" clip-rule="evenodd" d="M228.731 37.8038H223.579V28.7222H219.836V37.8038H214.636V15.0515H219.836V23.2636H223.579V15.0515H228.731V37.8038Z" fill="#5B53F9"/>
<path id="polygon901" fill-rule="evenodd" clip-rule="evenodd" d="M247.201 15.0515L243.118 25.8721L247.784 37.8038H241.66L238.695 28.6739H237.431V37.8038H232.23V15.0515H237.431V23.2636H238.549L241.562 15.0515H247.201Z" fill="#5B53F9"/>
<path id="polygon903" fill-rule="evenodd" clip-rule="evenodd" d="M67.0737 15.0515H77.9611V20.7517H72.4688V37.8038H67.0737V15.0515Z" fill="#5B53F9"/>
<path id="polygon905" fill-rule="evenodd" clip-rule="evenodd" d="M173.176 37.8038V23.9399L169.969 27.901L166.761 23.9399V37.8038H161.463V15.0515H165.983L169.969 20.4135L173.954 15.0515H178.474V37.8038H173.176Z" fill="#5B53F9"/>
<path id="path907" fill-rule="evenodd" clip-rule="evenodd" d="M196.555 37.8519H201.95L202.582 33.9391H206.276L206.956 37.8519H212.352L207.783 15.0996H201.075L196.555 37.8519ZM204.478 21.9591L205.498 28.9152H203.506L204.478 21.9591Z" fill="#5B53F9"/>
</g>
</g>
</svg>
