<svg width="182" height="35" viewBox="0 0 182 35" fill="none" xmlns="http://www.w3.org/2000/svg">
<g id="Layer_1" clip-path="url(#clip0_23_1144)">
<path id="Vector" d="M81.6249 17.5991C81.6249 24.3646 77.4364 27.5619 72.1976 27.5619H68.9946V23.5013H71.9447C75.1023 23.5013 77.2095 21.8195 77.2095 17.5991C77.2095 13.3787 75.219 11.326 71.8475 11.326C68.4759 11.326 66.2844 13.2956 66.2844 17.516V34.4936H61.9208V7.80261H66.2844V10.0983H66.9068C68.3592 8.1735 70.5118 7.31023 72.7617 7.31023C77.5855 7.31023 81.612 10.7569 81.612 17.6055L81.6249 17.5991ZM52.9279 15.8342L50.0167 15.5465C47.7279 15.3418 46.522 14.7279 46.522 13.4171C46.522 11.8568 48.0586 10.9551 50.2631 10.9551C52.4676 10.9551 54.0042 12.023 54.1274 13.5386H58.3289C58.1603 9.68262 55.1259 7.30384 50.302 7.30384C45.4781 7.30384 42.1519 9.84888 42.1519 13.5769C42.1519 16.6911 44.1489 18.7054 48.6811 19.153L51.6312 19.4408C53.4207 19.607 54.6266 19.9715 54.6266 21.6533C54.6266 23.1688 53.505 24.2751 50.5549 24.2751C47.8382 24.2751 46.496 23.0601 46.0292 21.4295H41.4841C41.938 25.1575 45.115 28.0479 50.5549 28.0479C55.6705 28.0479 58.9967 25.3813 58.9967 21.4423C58.9967 17.9572 56.669 16.1923 52.9279 15.8214V15.8342ZM98.5345 21.4359C97.8472 22.9898 96.2133 24.16 93.8921 24.16C90.6892 24.16 88.3226 22.1073 88.3226 17.6822C88.3226 13.2572 90.5271 11.1214 93.9375 11.1214C96.9719 11.1214 98.7225 12.9247 98.8846 15.6296H91.0263V18.7437H103.17V16.6911C103.17 10.9935 99.345 7.29744 93.8986 7.29744C88.8284 7.29744 83.9591 10.6994 83.9591 17.6759C83.9591 24.6523 88.8219 28.0543 93.8986 28.0543C98.541 28.0543 101.848 25.2343 102.872 21.4359H98.541H98.5345ZM29.7096 7.31023C24.9246 7.31023 21.3521 9.77215 20.9371 13.545H25.6379C25.9685 12.1509 27.2588 11.1278 29.7096 11.1278C32.8672 11.1278 33.9111 12.7712 33.9111 14.7791V21.5446C32.1216 23.5525 30.0468 24.4989 27.9655 24.4989C25.8842 24.4989 24.3087 23.4757 24.3087 21.6277C24.3087 19.7797 25.4758 18.7565 27.7191 18.7565H31.2139V15.6424H27.5959C22.6035 15.6424 19.8219 18.1043 19.8219 21.8771C19.8219 25.4069 22.5257 28.0671 26.9735 28.0671C29.4697 28.0671 31.6742 27.0823 33.2952 25.8929H33.9176V27.5747H38.2811V14.3635C38.2811 9.48439 34.9161 7.31023 29.7161 7.31023H29.7096ZM0.0854492 27.5683H4.449V0.5H0.0854492V27.5683ZM18.4215 7.80261H13.0983L6.73776 16.0452V18.6286L13.2669 27.5683H18.6743L11.0235 17.3178L18.4279 7.80261H18.4215ZM176.255 7.80261L172.676 15.636C171.801 17.5224 170.971 19.3704 170.724 20.5982H170.102C169.856 19.3704 168.98 17.5607 168.105 15.6743L164.526 7.80261H159.702L168.099 25.5604L163.942 34.5H168.598L181.072 7.80261H176.249H176.255ZM158.742 7.80261H153.419L147.059 16.0452V18.6286L153.588 27.5683H158.995L151.345 17.3178L158.749 7.80261H158.742ZM131.407 15.8406L128.496 15.5529C126.207 15.3482 125.001 14.7343 125.001 13.4235C125.001 11.8632 126.538 10.9615 128.742 10.9615C130.947 10.9615 132.483 12.0294 132.607 13.545H136.808C136.639 9.68902 133.605 7.31023 128.781 7.31023C123.957 7.31023 120.631 9.85528 120.631 13.5833C120.631 16.6975 122.628 18.7118 127.16 19.1594L130.11 19.4472C131.9 19.6134 133.106 19.9779 133.106 21.6597C133.106 23.1752 131.984 24.2815 129.034 24.2815C126.317 24.2815 124.975 23.0665 124.508 21.4359H119.963C120.417 25.1639 123.594 28.0543 129.034 28.0543C134.15 28.0543 137.476 25.3877 137.476 21.4487C137.476 17.9636 135.148 16.1987 131.407 15.8278V15.8406ZM140.406 27.5683H144.77V0.5H140.406V27.5683ZM111.612 10.0983H110.99V7.80261H106.626V27.5683H110.99V17.2346C110.99 13.7048 112.643 11.6585 115.898 11.6585H118.66V7.31023H117.059C114.037 7.31023 112.753 8.43568 111.612 10.0983Z" fill="#069782"/>
</g>
<defs>
<clipPath id="clip0_23_1144">
<rect width="181" height="34" fill="white" transform="translate(0.0854492 0.5)"/>
</clipPath>
</defs>
</svg>
